<svg fill="none" height="16" viewBox="0 0 16 16" width="16" xmlns="http://www.w3.org/2000/svg"><g stroke="#c7c6d8" stroke-linecap="round" stroke-linejoin="round" stroke-width="2"><path d="m7.99967 14.6666c3.68193 0 6.66663-2.9847 6.66663-6.66662 0-3.6819-2.9847-6.66667-6.66663-6.66667-3.68189 0-6.66666 2.98477-6.66666 6.66667 0 3.68192 2.98477 6.66662 6.66666 6.66662z"/><path d="m8 11.3333h.00667"/><path d="m6.05957 6.00001c.15674-.44555.4661-.82126.8733-1.06057.4072-.23932.88596-.3268 1.35148-.24695s.88776.32187 1.19194.68321c.30417.36133.47065.81866.46995 1.29098 0 1.33333-2 2-2 2"/></g></svg>